<?xml version="1.0" encoding="utf-8"?>
<!-- Generator: Adobe Illustrator 17.0.0, SVG Export Plug-In . SVG Version: 6.00 Build 0)  -->
<!DOCTYPE svg PUBLIC "-//W3C//DTD SVG 1.1//EN" "http://www.w3.org/Graphics/SVG/1.1/DTD/svg11.dtd">
<svg version="1.1" id="Layer_1" xmlns="http://www.w3.org/2000/svg" xmlns:xlink="http://www.w3.org/1999/xlink" x="0px" y="0px"
	 width="209.234px" height="42.009px" viewBox="0 0 209.234 42.009" enable-background="new 0 0 209.234 42.009"
	 xml:space="preserve">
<g>
	<g>
		<path fill="#FFFFFF" d="M46.638,20.237h-3.253v-0.442c0-0.163-0.132-0.295-0.295-0.295h-0.657
			c-0.317-3.268-1.613-6.254-3.593-8.658l0.469-0.469c0.115-0.115,0.115-0.302,0-0.417l-0.312-0.312l2.3-2.3
			c0.324-0.324,0.324-0.849,0-1.173s-0.849-0.324-1.173,0l-2.301,2.3l-0.312-0.312c-0.115-0.115-0.302-0.115-0.417,0l-0.469,0.469
			c-2.404-1.979-5.39-3.276-8.658-3.593V4.378c0-0.163-0.132-0.295-0.295-0.295H27.23V0.829C27.231,0.371,26.86,0,26.402,0
			s-0.829,0.371-0.829,0.829v3.253h-0.442c-0.163,0-0.295,0.132-0.295,0.295v0.657c-3.268,0.317-6.254,1.613-8.658,3.593
			l-0.469-0.469c-0.115-0.115-0.302-0.115-0.417,0L14.979,8.47l-2.3-2.3c-0.324-0.324-0.849-0.324-1.173,0s-0.324,0.849,0,1.173
			l2.3,2.3l-0.312,0.312c-0.115,0.115-0.115,0.302,0,0.417l0.469,0.469c-1.979,2.404-3.276,5.39-3.593,8.658H9.713
			c-0.163,0-0.295,0.132-0.295,0.295v0.442H6.165c-0.458,0-0.829,0.371-0.829,0.829s0.371,0.829,0.829,0.829h3.253v0.442
			c0,0.163,0.132,0.295,0.295,0.295h0.657c0.317,3.268,1.613,6.254,3.593,8.658l-0.469,0.469c-0.115,0.115-0.115,0.302,0,0.417
			l0.312,0.312l-2.301,2.301c-0.324,0.324-0.324,0.849,0,1.173c0.162,0.162,0.374,0.243,0.586,0.243
			c0.212,0,0.424-0.081,0.586-0.243l2.3-2.3l0.312,0.312c0.115,0.115,0.302,0.115,0.417,0l0.469-0.469
			c2.404,1.979,5.39,3.276,8.658,3.592v0.657c0,0.163,0.132,0.295,0.295,0.295h0.442v3.253c0,0.458,0.371,0.829,0.829,0.829
			s0.829-0.371,0.829-0.829V38.05h0.442c0.163,0,0.295-0.132,0.295-0.295v-0.657c3.268-0.317,6.254-1.613,8.658-3.592l0.469,0.469
			c0.115,0.115,0.302,0.115,0.417,0l0.312-0.312l2.3,2.3c0.162,0.162,0.374,0.243,0.586,0.243c0.212,0,0.424-0.081,0.586-0.243
			c0.324-0.324,0.324-0.849,0-1.173l-2.3-2.301l0.312-0.312c0.115-0.115,0.115-0.302,0-0.417l-0.465-0.47
			c1.979-2.404,3.276-5.39,3.593-8.658h0.657c0.163,0,0.295-0.132,0.295-0.295v-0.442h3.253c0.458,0,0.829-0.371,0.829-0.829
			C47.468,20.608,47.096,20.237,46.638,20.237z M26.402,36.511c-8.517,0-15.445-6.929-15.445-15.445S17.885,5.621,26.402,5.621
			c8.516,0,15.445,6.929,15.445,15.445S34.918,36.511,26.402,36.511z M26.402,7.34c-7.568,0-13.726,6.157-13.726,13.726
			c0,7.568,6.157,13.726,13.726,13.726c7.568,0,13.725-6.157,13.725-13.726C40.127,13.498,33.97,7.34,26.402,7.34z M27.231,8.827
			h0.442c0.163,0,0.295-0.132,0.295-0.295v-0.43c2.43,0.292,4.656,1.253,6.49,2.694l-0.3,0.3c-0.115,0.115-0.115,0.302,0,0.418
			l0.312,0.312l-2.933,2.933l-0.388-0.388c-0.115-0.115-0.302-0.115-0.417,0l-0.67,0.67c-0.665-0.406-1.403-0.703-2.188-0.87v-0.984
			c0-0.163-0.132-0.295-0.295-0.295h-0.346V8.827H27.231z M18.646,11.095l-0.3-0.3c1.833-1.441,4.06-2.402,6.49-2.694v0.43
			c0,0.163,0.132,0.295,0.295,0.295h0.442v4.064h-0.537c-0.163,0-0.295,0.132-0.295,0.295v1.028
			c-0.76,0.184-1.472,0.492-2.114,0.901l-0.745-0.745c-0.115-0.115-0.302-0.115-0.417,0l-0.293,0.293l-2.838-2.838l0.312-0.312
			C18.761,11.398,18.761,11.211,18.646,11.095z M16.131,13.01l0.3,0.3c0.115,0.115,0.302,0.115,0.417,0l0.312-0.312l2.838,2.838
			l-0.332,0.332c-0.115,0.115-0.115,0.302,0,0.417l0.753,0.754c-0.401,0.641-0.701,1.35-0.88,2.105h-1.058
			c-0.163,0-0.295,0.132-0.295,0.295v0.498h-4.025v-0.442c0-0.163-0.132-0.295-0.295-0.295h-0.43
			C13.728,17.07,14.69,14.844,16.131,13.01z M16.848,28.822c-0.115-0.115-0.302-0.115-0.417,0l-0.3,0.3
			c-1.441-1.833-2.402-4.06-2.694-6.49h0.43c0.163,0,0.295-0.132,0.295-0.295v-0.442h4.025v0.385c0,0.163,0.132,0.295,0.295,0.295
			h1.032c0.169,0.771,0.463,1.495,0.862,2.149l-0.71,0.71c-0.115,0.115-0.115,0.302,0,0.417l0.388,0.388l-2.894,2.894L16.848,28.822
			z M25.572,33.306H25.13c-0.163,0-0.295,0.132-0.295,0.295v0.43c-2.43-0.292-4.656-1.253-6.49-2.694l0.3-0.3
			c0.115-0.115,0.115-0.302,0-0.417l-0.312-0.312l2.894-2.894l0.237,0.237c0.115,0.115,0.302,0.115,0.417,0l0.677-0.677
			c0.66,0.431,1.395,0.754,2.182,0.945v0.916c0,0.163,0.132,0.295,0.295,0.295h0.537V33.306z M20.014,21.066
			c0-3.522,2.866-6.388,6.388-6.388s6.388,2.866,6.388,6.388s-2.866,6.388-6.388,6.388C22.879,27.454,20.014,24.588,20.014,21.066z
			 M34.157,31.037l0.3,0.3c-1.834,1.441-4.06,2.403-6.49,2.694v-0.43c0-0.163-0.132-0.295-0.295-0.295H27.23V29.13h0.346
			c0.163,0,0.295-0.132,0.295-0.295v-0.872c0.813-0.173,1.574-0.487,2.257-0.914l0.602,0.602c0.115,0.115,0.302,0.115,0.417,0
			l0.332-0.332l2.989,2.989l-0.312,0.312C34.042,30.735,34.042,30.921,34.157,31.037z M36.672,29.122l-0.3-0.3
			c-0.115-0.115-0.302-0.115-0.417,0l-0.312,0.312l-2.989-2.989l0.293-0.293c0.115-0.115,0.115-0.302,0-0.417l-0.594-0.594
			c0.436-0.685,0.757-1.448,0.936-2.265h0.842c0.163,0,0.295-0.132,0.295-0.295v-0.385h4.215v0.442c0,0.163,0.132,0.295,0.295,0.295
			h0.43C39.075,25.062,38.113,27.288,36.672,29.122z M36.372,13.31l0.3-0.3c1.441,1.833,2.402,4.06,2.694,6.49h-0.43
			c-0.163,0-0.295,0.132-0.295,0.295v0.442h-4.215v-0.498c0-0.163-0.132-0.295-0.295-0.295h-0.868
			c-0.19-0.802-0.516-1.551-0.954-2.221l0.638-0.638c0.115-0.115,0.115-0.302,0-0.417l-0.237-0.237l2.933-2.933l0.312,0.312
			C36.07,13.425,36.257,13.425,36.372,13.31z M26.764,18.38c-0.25,0-0.415,0.032-0.495,0.096c-0.08,0.064-0.12,0.196-0.12,0.394
			v2.203c0,0.051,0.014,0.084,0.043,0.096c0.029,0.013,0.082,0.019,0.159,0.019c0.314,0,0.577-0.024,0.789-0.072
			s0.382-0.128,0.51-0.24s0.22-0.258,0.274-0.438c0.054-0.179,0.082-0.404,0.082-0.673c0-0.507-0.093-0.864-0.279-1.073
			C27.539,18.484,27.219,18.38,26.764,18.38z M26.402,16.203c-2.686,0-4.863,2.177-4.863,4.863s2.177,4.863,4.863,4.863
			s4.863-2.177,4.863-4.863S29.087,16.203,26.402,16.203z M28.861,20.544c-0.141,0.237-0.335,0.43-0.582,0.577
			c-0.247,0.148-0.537,0.255-0.871,0.322c-0.333,0.067-0.693,0.107-1.077,0.12c-0.064,0-0.111,0.01-0.14,0.029
			s-0.043,0.074-0.043,0.164v1.405c0,0.218,0.023,0.393,0.067,0.524c0.045,0.132,0.114,0.234,0.207,0.308
			c0.093,0.074,0.208,0.127,0.346,0.159s0.3,0.055,0.486,0.067c0.045,0,0.077,0.018,0.096,0.053c0.019,0.035,0.029,0.076,0.029,0.12
			c0,0.038-0.011,0.074-0.034,0.106c-0.023,0.032-0.056,0.048-0.101,0.048c-0.346,0-0.643-0.013-0.89-0.039
			s-0.486-0.039-0.717-0.039c-0.244,0-0.484,0.013-0.722,0.039c-0.237,0.026-0.468,0.039-0.693,0.039
			c-0.039,0-0.067-0.016-0.087-0.048c-0.019-0.032-0.031-0.067-0.034-0.106c-0.003-0.038,0.005-0.075,0.024-0.111
			c0.019-0.035,0.051-0.056,0.096-0.062c0.18-0.019,0.327-0.045,0.443-0.077c0.115-0.032,0.205-0.083,0.269-0.154
			c0.064-0.07,0.107-0.164,0.13-0.279c0.022-0.116,0.034-0.269,0.034-0.462v-3.589c0-0.141-0.003-0.282-0.01-0.423
			s-0.027-0.271-0.062-0.39s-0.087-0.22-0.154-0.303s-0.159-0.138-0.274-0.164c-0.071-0.013-0.144-0.027-0.221-0.043
			c-0.077-0.016-0.151-0.027-0.221-0.034c-0.038,0-0.067-0.016-0.087-0.048c-0.019-0.032-0.029-0.067-0.029-0.106
			c0-0.039,0.01-0.074,0.029-0.106c0.019-0.032,0.048-0.048,0.087-0.048c0.218,0,0.414,0.01,0.587,0.029s0.375,0.029,0.606,0.029
			c0.385-0.006,0.704-0.018,0.957-0.034s0.495-0.024,0.726-0.024c0.257,0,0.508,0.027,0.755,0.082s0.465,0.148,0.654,0.279
			c0.189,0.132,0.341,0.303,0.457,0.515c0.116,0.212,0.173,0.472,0.173,0.779C29.073,20.009,29.002,20.307,28.861,20.544z"/>
	</g>
</g>
<g>
	<path fill="#FFFFFF" d="M64.934,24.081c0,0.411,0.041,0.74,0.123,0.986c0.082,0.247,0.211,0.439,0.387,0.577
		s0.393,0.237,0.65,0.299s0.56,0.104,0.905,0.128c0.088,0,0.149,0.032,0.185,0.096s0.053,0.134,0.053,0.212
		s-0.021,0.146-0.062,0.203s-0.105,0.087-0.193,0.087c-0.645,0-1.198-0.023-1.661-0.07s-0.911-0.07-1.345-0.07
		c-0.457,0-0.907,0.023-1.349,0.07c-0.443,0.047-0.875,0.07-1.297,0.07c-0.07,0-0.123-0.029-0.158-0.087s-0.056-0.122-0.062-0.194
		s0.009-0.141,0.044-0.204s0.094-0.101,0.176-0.112c0.34-0.035,0.616-0.084,0.83-0.145c0.214-0.062,0.381-0.159,0.502-0.291
		c0.119-0.132,0.201-0.307,0.246-0.523c0.043-0.217,0.065-0.504,0.065-0.861V17.53c0-0.264-0.008-0.528-0.022-0.792
		c-0.015-0.264-0.054-0.507-0.118-0.73c-0.064-0.223-0.16-0.412-0.286-0.567c-0.126-0.156-0.297-0.257-0.514-0.304
		c-0.129-0.029-0.267-0.059-0.413-0.088s-0.284-0.05-0.413-0.062c-0.07,0-0.125-0.029-0.162-0.088
		c-0.039-0.059-0.058-0.125-0.058-0.198c0-0.074,0.019-0.14,0.058-0.198c0.037-0.059,0.092-0.088,0.162-0.088
		c0.404,0,0.77,0.018,1.094,0.053c0.326,0.035,0.705,0.053,1.139,0.053c0.721-0.012,1.316-0.032,1.789-0.062
		c0.471-0.029,0.924-0.044,1.357-0.044c0.48,0,0.952,0.05,1.415,0.149s0.871,0.272,1.226,0.519s0.639,0.568,0.854,0.967
		c0.213,0.398,0.32,0.885,0.32,1.459c0,0.674-0.132,1.232-0.396,1.674c-0.264,0.443-0.626,0.802-1.085,1.077
		c-0.461,0.275-1.002,0.477-1.627,0.603c-0.623,0.126-1.296,0.2-2.017,0.224c-0.123,0-0.211,0.02-0.264,0.058
		s-0.079,0.139-0.079,0.304V24.081z M64.934,20.173c0,0.094,0.026,0.153,0.079,0.181c0.053,0.025,0.152,0.039,0.299,0.039
		c0.586,0,1.077-0.045,1.472-0.137c0.396-0.09,0.714-0.241,0.954-0.452s0.411-0.485,0.515-0.822
		c0.102-0.337,0.153-0.757,0.153-1.261c0-0.943-0.175-1.61-0.522-2c-0.35-0.39-0.948-0.584-1.798-0.584
		c-0.469,0-0.778,0.059-0.927,0.176c-0.15,0.117-0.225,0.363-0.225,0.738V20.173z"/>
	<path fill="#FFFFFF" d="M73.161,17.494c0-0.258-0.009-0.515-0.026-0.77s-0.059-0.491-0.123-0.708
		c-0.064-0.217-0.158-0.403-0.281-0.559c-0.123-0.156-0.293-0.263-0.51-0.321c-0.129-0.041-0.267-0.073-0.413-0.097
		s-0.284-0.041-0.413-0.053c-0.076,0-0.132-0.029-0.167-0.088s-0.053-0.123-0.053-0.193s0.018-0.136,0.053-0.198
		s0.091-0.092,0.167-0.092c0.205,0,0.396,0.003,0.576,0.009c0.178,0.006,0.35,0.015,0.514,0.026s0.341,0.021,0.531,0.026
		s0.395,0.009,0.611,0.009c0.363-0.006,0.692-0.012,0.988-0.018s0.562-0.015,0.796-0.026c0.475-0.018,0.929-0.026,1.362-0.026
		c0.486,0,0.963,0.057,1.428,0.171c0.467,0.114,0.882,0.299,1.248,0.554s0.661,0.583,0.884,0.984s0.334,0.892,0.334,1.472
		c0,0.457-0.069,0.854-0.206,1.191c-0.139,0.336-0.329,0.625-0.572,0.866s-0.528,0.436-0.856,0.584
		c-0.328,0.15-0.686,0.266-1.072,0.348c-0.082,0.023-0.123,0.063-0.123,0.119s0.041,0.106,0.123,0.153
		c0.375,0.188,0.691,0.387,0.949,0.598c0.258,0.211,0.473,0.431,0.646,0.66s0.311,0.463,0.414,0.703
		c0.102,0.24,0.187,0.483,0.254,0.729s0.125,0.495,0.172,0.747s0.1,0.498,0.158,0.738c0.059,0.281,0.158,0.483,0.299,0.606
		s0.281,0.185,0.422,0.185c0.146,0,0.285-0.059,0.418-0.176c0.131-0.117,0.232-0.299,0.303-0.545
		c0.018-0.082,0.05-0.138,0.097-0.167s0.1-0.044,0.158-0.044c0.088,0,0.17,0.029,0.246,0.088s0.108,0.123,0.097,0.193
		c-0.035,0.299-0.119,0.557-0.25,0.773c-0.133,0.217-0.294,0.396-0.484,0.536s-0.401,0.243-0.633,0.308s-0.461,0.097-0.689,0.097
		c-0.193,0-0.378-0.021-0.554-0.062s-0.339-0.104-0.487-0.189c-0.15-0.084-0.279-0.187-0.387-0.307
		c-0.109-0.12-0.189-0.26-0.242-0.418c-0.076-0.199-0.148-0.419-0.215-0.659c-0.068-0.24-0.133-0.483-0.193-0.729
		c-0.062-0.246-0.121-0.484-0.176-0.717c-0.057-0.23-0.107-0.44-0.154-0.628c-0.223-0.768-0.504-1.318-0.844-1.652
		c-0.34-0.34-0.814-0.51-1.424-0.51c-0.205,0-0.38,0.043-0.523,0.128s-0.215,0.254-0.215,0.506v2.43
		c0,0.405,0.042,0.732,0.127,0.982c0.085,0.249,0.211,0.444,0.379,0.585c0.166,0.142,0.373,0.241,0.619,0.3s0.53,0.1,0.853,0.123
		c0.076,0,0.133,0.032,0.171,0.096s0.058,0.133,0.058,0.207c0,0.075-0.021,0.144-0.062,0.204s-0.103,0.091-0.185,0.091
		c-0.299,0-0.579-0.008-0.839-0.021c-0.262-0.016-0.509-0.031-0.743-0.049s-0.462-0.034-0.681-0.049
		c-0.221-0.014-0.438-0.021-0.655-0.021c-0.457,0-0.907,0.023-1.349,0.07c-0.443,0.047-0.875,0.07-1.297,0.07
		c-0.07,0-0.125-0.03-0.162-0.091c-0.039-0.061-0.058-0.132-0.058-0.212c0-0.069,0.016-0.133,0.048-0.191
		c0.032-0.058,0.09-0.092,0.172-0.104c0.34-0.035,0.616-0.084,0.83-0.145c0.214-0.062,0.381-0.157,0.502-0.286
		c0.119-0.129,0.201-0.306,0.246-0.528c0.043-0.223,0.065-0.51,0.065-0.862V17.494z M75.121,19.637c0,0.311,0.085,0.492,0.255,0.545
		c0.176,0.053,0.439,0.079,0.791,0.079c0.469,0,0.861-0.045,1.178-0.136s0.569-0.24,0.761-0.449
		c0.189-0.207,0.324-0.477,0.404-0.808c0.078-0.331,0.118-0.737,0.118-1.217c0-0.463-0.043-0.853-0.128-1.169
		s-0.219-0.571-0.404-0.765c-0.184-0.193-0.428-0.333-0.729-0.417c-0.303-0.085-0.667-0.127-1.095-0.127
		c-0.475,0-0.785,0.062-0.932,0.185c-0.146,0.111-0.22,0.354-0.22,0.729V19.637z"/>
	<path fill="#FFFFFF" d="M85.175,17.176c0-0.375-0.021-0.694-0.062-0.958s-0.122-0.479-0.241-0.646
		c-0.121-0.167-0.292-0.296-0.515-0.387s-0.519-0.148-0.888-0.171c-0.07,0-0.125-0.033-0.162-0.098
		c-0.039-0.065-0.058-0.135-0.058-0.209s0.019-0.141,0.058-0.201c0.037-0.06,0.092-0.089,0.162-0.089
		c0.381,0,0.817,0.018,1.309,0.053c0.492,0.035,0.953,0.053,1.385,0.053c0.251,0,0.487-0.006,0.709-0.018s0.437-0.023,0.645-0.035
		s0.421-0.023,0.638-0.035s0.451-0.018,0.703-0.018c0.076,0,0.129,0.03,0.158,0.089s0.041,0.126,0.035,0.201
		s-0.028,0.144-0.065,0.209c-0.039,0.065-0.087,0.098-0.146,0.098c-0.369,0.023-0.668,0.075-0.896,0.154s-0.403,0.199-0.522,0.36
		c-0.121,0.161-0.198,0.374-0.233,0.637s-0.053,0.601-0.053,1.011v7.058c0,0.393,0.023,0.7,0.07,0.923s0.133,0.395,0.259,0.514
		c0.126,0.121,0.304,0.209,0.532,0.264c0.229,0.057,0.521,0.102,0.879,0.137c0.076,0.012,0.135,0.049,0.176,0.112
		s0.062,0.132,0.062,0.204s-0.021,0.137-0.062,0.194s-0.105,0.087-0.193,0.087c-0.48,0-0.938-0.023-1.375-0.07
		c-0.436-0.047-0.87-0.07-1.302-0.07c-0.455,0-0.925,0.023-1.411,0.07c-0.485,0.047-0.925,0.07-1.317,0.07
		c-0.076,0-0.132-0.029-0.167-0.087s-0.053-0.122-0.053-0.194s0.018-0.141,0.053-0.204s0.091-0.101,0.167-0.112
		c0.369-0.035,0.665-0.08,0.888-0.137c0.223-0.055,0.396-0.143,0.522-0.264c0.126-0.119,0.21-0.291,0.251-0.514
		s0.062-0.53,0.062-0.923V17.176z"/>
	<path fill="#FFFFFF" d="M91.873,16.675c0-0.363-0.026-0.646-0.079-0.848s-0.143-0.36-0.269-0.475s-0.291-0.193-0.496-0.237
		s-0.463-0.078-0.773-0.101c-0.07,0-0.127-0.033-0.172-0.098c-0.043-0.065-0.065-0.135-0.065-0.209s0.022-0.141,0.065-0.201
		c0.045-0.06,0.102-0.089,0.172-0.089c0.105,0,0.27,0,0.492,0s0.472,0.003,0.747,0.009s0.561,0.012,0.856,0.018
		s0.564,0.018,0.805,0.035s0.443,0.041,0.611,0.07c0.166,0.029,0.256,0.067,0.268,0.114l3.656,8.587
		c0.023,0.035,0.05,0.053,0.079,0.053s0.056-0.018,0.079-0.053l3.604-8.587c0.012-0.047,0.164-0.085,0.457-0.114
		s0.634-0.053,1.023-0.07s0.785-0.032,1.188-0.044c0.4-0.012,0.722-0.018,0.962-0.018c0.076,0,0.129,0.03,0.158,0.089
		s0.044,0.126,0.044,0.201s-0.018,0.141-0.053,0.201s-0.085,0.095-0.149,0.107c-0.404,0.07-0.721,0.136-0.949,0.198
		s-0.397,0.173-0.505,0.334c-0.109,0.161-0.175,0.398-0.198,0.712s-0.035,0.757-0.035,1.332v6.645c0,0.393,0.023,0.7,0.07,0.923
		s0.133,0.395,0.259,0.514c0.126,0.121,0.304,0.209,0.532,0.264c0.229,0.057,0.524,0.102,0.888,0.137
		c0.07,0.012,0.126,0.049,0.167,0.112s0.062,0.132,0.062,0.204s-0.021,0.137-0.062,0.194s-0.105,0.087-0.193,0.087
		c-0.475,0-0.932-0.023-1.371-0.07s-0.876-0.07-1.31-0.07c-0.457,0-0.928,0.023-1.41,0.07c-0.484,0.047-0.925,0.07-1.323,0.07
		c-0.07,0-0.125-0.029-0.163-0.087s-0.057-0.122-0.057-0.194s0.019-0.141,0.057-0.204s0.093-0.101,0.163-0.112
		c0.375-0.035,0.673-0.081,0.892-0.137c0.221-0.056,0.393-0.144,0.52-0.264c0.125-0.12,0.211-0.292,0.254-0.515
		c0.045-0.223,0.066-0.53,0.066-0.924v-6.687c0-0.082-0.049-0.12-0.145-0.114c-0.098,0.006-0.157,0.044-0.181,0.114l-2.593,6.1
		c-0.182,0.422-0.359,0.882-0.531,1.38c-0.174,0.498-0.345,0.999-0.515,1.503c-0.012,0.035-0.044,0.062-0.097,0.079
		s-0.109,0.026-0.172,0.026c-0.061,0-0.118-0.009-0.171-0.026s-0.085-0.044-0.097-0.079l-3.964-9.071
		c-0.023-0.064-0.075-0.103-0.153-0.114c-0.08-0.012-0.119,0.032-0.119,0.132v6.705c0,0.429,0.036,0.763,0.109,1.003
		s0.179,0.421,0.316,0.541s0.31,0.203,0.515,0.246c0.205,0.045,0.445,0.084,0.721,0.119c0.059,0.012,0.103,0.046,0.132,0.104
		c0.029,0.059,0.044,0.123,0.044,0.195s-0.015,0.137-0.044,0.194s-0.079,0.087-0.149,0.087c-0.264,0-0.556-0.023-0.874-0.07
		c-0.32-0.047-0.696-0.07-1.13-0.07c-0.451,0-0.854,0.023-1.208,0.07c-0.355,0.047-0.652,0.07-0.893,0.07
		c-0.059,0-0.107-0.029-0.145-0.087c-0.039-0.058-0.061-0.122-0.066-0.194s0.009-0.137,0.044-0.195
		c0.035-0.058,0.091-0.092,0.167-0.104c0.311-0.035,0.571-0.074,0.782-0.119c0.211-0.043,0.379-0.125,0.505-0.246
		c0.126-0.119,0.216-0.3,0.269-0.54s0.079-0.574,0.079-1.002V16.675z"/>
	<path fill="#FFFFFF" d="M115.199,14.469c0.105,0,0.196,0.012,0.272,0.035c0.094,0.029,0.129,0.126,0.105,0.29
		c-0.018,0.094-0.028,0.196-0.031,0.308s-0.004,0.229-0.004,0.352v0.29c0,0.264,0.009,0.52,0.026,0.769s0.026,0.497,0.026,0.743
		c0,0.047-0.031,0.083-0.092,0.11c-0.062,0.026-0.128,0.04-0.198,0.04c-0.064,0-0.125-0.012-0.181-0.035s-0.089-0.062-0.101-0.114
		c-0.082-0.463-0.167-0.828-0.255-1.094s-0.21-0.469-0.365-0.606s-0.359-0.224-0.615-0.259c-0.254-0.035-0.593-0.059-1.015-0.07
		h-1.081c-0.346,0-0.615,0.006-0.809,0.018s-0.338,0.056-0.436,0.132c-0.096,0.076-0.156,0.198-0.18,0.365s-0.035,0.403-0.035,0.708
		v3.146c0,0.17,0.029,0.275,0.088,0.316s0.117,0.062,0.176,0.062c0.557,0,0.993-0.024,1.31-0.074s0.555-0.137,0.716-0.26
		s0.27-0.289,0.326-0.496c0.055-0.208,0.101-0.471,0.136-0.787c0.012-0.064,0.051-0.113,0.118-0.145s0.14-0.048,0.216-0.048
		c0.07,0,0.132,0.016,0.185,0.048s0.079,0.081,0.079,0.145c0,0.193-0.006,0.365-0.018,0.514c-0.012,0.15-0.025,0.298-0.04,0.449
		c-0.015,0.148-0.027,0.306-0.039,0.47s-0.018,0.352-0.018,0.562c0,0.369,0.018,0.697,0.053,0.984
		c0.023,0.146,0.039,0.31,0.049,0.488c0.008,0.18,0.013,0.374,0.013,0.585c0,0.059-0.029,0.103-0.088,0.132
		s-0.123,0.044-0.193,0.044c-0.076,0-0.146-0.015-0.206-0.044c-0.062-0.029-0.099-0.073-0.11-0.132
		c-0.035-0.352-0.081-0.636-0.136-0.853c-0.057-0.217-0.165-0.387-0.326-0.51s-0.399-0.207-0.716-0.25
		c-0.316-0.045-0.753-0.066-1.31-0.066c-0.059,0-0.117,0.021-0.176,0.066c-0.059,0.043-0.088,0.13-0.088,0.259v2.365
		c0,0.551,0.024,0.984,0.074,1.301s0.161,0.556,0.334,0.717s0.425,0.264,0.756,0.307c0.331,0.045,0.775,0.066,1.332,0.066
		c0.299,0,0.572-0.012,0.822-0.035c0.248-0.023,0.438-0.059,0.566-0.105c0.234-0.088,0.439-0.182,0.615-0.281
		s0.325-0.226,0.448-0.378s0.223-0.346,0.299-0.58s0.138-0.53,0.185-0.888c0.012-0.064,0.051-0.111,0.119-0.141
		c0.066-0.029,0.142-0.044,0.224-0.044c0.088,0,0.167,0.018,0.237,0.053s0.1,0.085,0.088,0.149c-0.059,0.51-0.113,0.981-0.162,1.415
		c-0.051,0.434-0.069,0.879-0.058,1.336c0,0.018-0.005,0.041-0.013,0.07c-0.01,0.029-0.028,0.058-0.058,0.083
		c-0.029,0.027-0.072,0.051-0.128,0.07c-0.056,0.021-0.127,0.031-0.215,0.031h-6.53c-0.457,0-0.904,0.012-1.341,0.035
		s-0.83,0.047-1.182,0.07c-0.076,0-0.135-0.032-0.176-0.096s-0.062-0.136-0.062-0.216c0-0.063,0.016-0.124,0.048-0.183
		c0.032-0.058,0.09-0.092,0.172-0.104c0.281-0.035,0.525-0.086,0.734-0.154c0.207-0.067,0.379-0.164,0.514-0.29
		s0.234-0.287,0.299-0.483s0.097-0.441,0.097-0.734v-6.932c0-0.264-0.009-0.523-0.026-0.778s-0.059-0.488-0.123-0.699
		c-0.064-0.211-0.158-0.393-0.281-0.545s-0.293-0.258-0.51-0.317c-0.129-0.041-0.267-0.073-0.413-0.097s-0.284-0.041-0.413-0.053
		c-0.07,0-0.122-0.028-0.154-0.083s-0.048-0.119-0.048-0.189c0-0.076,0.018-0.145,0.053-0.207s0.085-0.092,0.149-0.092
		c0.398,0,0.762,0.009,1.09,0.026c0.322,0.018,0.703,0.026,1.143,0.026H115.199z"/>
	<path fill="#FFFFFF" d="M123.865,16.842c0,0.363,0.075,0.667,0.224,0.91c0.15,0.243,0.342,0.45,0.576,0.62s0.492,0.318,0.773,0.444
		s0.554,0.248,0.817,0.365c0.457,0.217,0.911,0.445,1.362,0.686s0.855,0.521,1.213,0.84s0.647,0.697,0.87,1.133
		c0.223,0.438,0.334,0.969,0.334,1.596c0,0.621-0.129,1.146-0.387,1.573s-0.593,0.776-1.007,1.046
		c-0.412,0.27-0.877,0.465-1.393,0.584c-0.516,0.12-1.031,0.181-1.547,0.181c-0.34,0-0.72-0.052-1.139-0.153
		c-0.419-0.103-0.801-0.257-1.146-0.462c-0.064-0.023-0.123-0.047-0.176-0.07s-0.12-0.035-0.202-0.035
		c-0.088,0-0.181,0.035-0.276,0.105c-0.098,0.07-0.181,0.196-0.251,0.378c-0.035,0.07-0.083,0.119-0.146,0.145
		c-0.061,0.027-0.124,0.035-0.188,0.027c-0.064-0.01-0.117-0.031-0.158-0.066s-0.062-0.076-0.062-0.123
		c0.035-0.264,0.067-0.549,0.097-0.857c0.029-0.307,0.044-0.616,0.044-0.927s-0.009-0.621-0.026-0.932s-0.05-0.636-0.097-0.976
		c-0.012-0.07,0.012-0.13,0.07-0.18s0.124-0.078,0.197-0.084s0.143,0.008,0.207,0.039c0.064,0.033,0.103,0.084,0.114,0.154
		c0.076,0.492,0.209,0.939,0.399,1.34c0.19,0.402,0.43,0.743,0.717,1.024s0.613,0.501,0.98,0.659
		c0.365,0.158,0.766,0.237,1.199,0.237c0.322,0,0.631-0.045,0.928-0.136c0.295-0.091,0.558-0.223,0.786-0.396
		c0.229-0.172,0.409-0.385,0.54-0.637c0.133-0.252,0.198-0.548,0.198-0.888c0-0.434-0.094-0.812-0.281-1.134
		s-0.419-0.601-0.694-0.835s-0.582-0.438-0.918-0.611c-0.338-0.173-0.655-0.333-0.954-0.479c-0.398-0.182-0.796-0.367-1.19-0.558
		c-0.396-0.19-0.749-0.421-1.06-0.69s-0.562-0.593-0.756-0.971c-0.193-0.378-0.29-0.851-0.29-1.419c0-0.574,0.117-1.056,0.352-1.446
		s0.543-0.705,0.928-0.945c0.383-0.24,0.821-0.415,1.313-0.523s1.002-0.163,1.529-0.163c0.34,0,0.625,0.021,0.856,0.062
		s0.494,0.111,0.787,0.211c0.152,0.047,0.279,0.085,0.383,0.114c0.102,0.029,0.2,0.044,0.294,0.044c0.146,0,0.249-0.059,0.308-0.176
		c0.023-0.047,0.068-0.081,0.137-0.101c0.066-0.021,0.13-0.026,0.188-0.018s0.112,0.025,0.163,0.048
		c0.049,0.023,0.068,0.059,0.057,0.105c-0.064,0.217-0.105,0.432-0.123,0.646s-0.026,0.441-0.026,0.681
		c0,0.316,0.019,0.601,0.058,0.853c0.037,0.252,0.068,0.551,0.092,0.896c0,0.035-0.025,0.067-0.074,0.097
		c-0.051,0.029-0.107,0.048-0.172,0.057s-0.127,0-0.189-0.026c-0.061-0.026-0.098-0.069-0.109-0.127
		c-0.117-0.527-0.248-0.962-0.391-1.305c-0.145-0.343-0.324-0.609-0.541-0.8s-0.479-0.322-0.787-0.396
		c-0.307-0.073-0.675-0.11-1.103-0.11c-0.305,0-0.592,0.04-0.861,0.119s-0.505,0.196-0.708,0.352
		c-0.201,0.155-0.363,0.35-0.482,0.584C123.924,16.276,123.865,16.543,123.865,16.842z"/>
	<path fill="#FFFFFF" d="M134.201,19.435c0.023,0.059,0.053,0.059,0.088,0c0.315-0.41,0.703-0.728,1.163-0.954
		c0.459-0.226,0.916-0.338,1.373-0.338c1.018,0,1.752,0.278,2.202,0.835s0.676,1.286,0.676,2.188v3.323
		c0,0.316,0.009,0.57,0.026,0.76c0.018,0.191,0.065,0.344,0.146,0.457c0.078,0.115,0.189,0.203,0.334,0.264
		c0.143,0.062,0.341,0.11,0.593,0.146c0.059,0.012,0.103,0.044,0.132,0.097s0.044,0.113,0.044,0.18c0,0.068-0.018,0.128-0.053,0.181
		s-0.082,0.079-0.141,0.079c-0.17,0-0.427-0.021-0.769-0.062c-0.344-0.041-0.693-0.062-1.051-0.062
		c-0.387,0-0.767,0.021-1.139,0.062s-0.689,0.062-0.953,0.062c-0.035,0-0.067-0.026-0.097-0.079s-0.044-0.112-0.044-0.181
		c0-0.066,0.012-0.127,0.035-0.18s0.064-0.085,0.123-0.097c0.275-0.035,0.489-0.083,0.642-0.145s0.261-0.152,0.325-0.272
		s0.105-0.274,0.123-0.465s0.026-0.438,0.026-0.742v-2.712c0-0.299-0.021-0.598-0.062-0.896c-0.041-0.299-0.118-0.57-0.232-0.816
		s-0.279-0.447-0.495-0.605c-0.217-0.158-0.503-0.237-0.859-0.237c-0.386,0-0.713,0.073-0.982,0.219
		c-0.269,0.146-0.489,0.319-0.662,0.521c-0.172,0.201-0.301,0.416-0.386,0.644s-0.127,0.426-0.127,0.595v3.182
		c0,0.322,0.006,0.589,0.018,0.8s0.049,0.38,0.109,0.505c0.062,0.127,0.155,0.221,0.281,0.281c0.126,0.062,0.304,0.11,0.532,0.146
		c0.059,0.012,0.103,0.044,0.132,0.097s0.044,0.113,0.044,0.18c0,0.068-0.015,0.128-0.044,0.181s-0.067,0.079-0.114,0.079
		c-0.158,0-0.403-0.021-0.734-0.062c-0.332-0.041-0.677-0.062-1.036-0.062c-0.389,0-0.757,0.021-1.103,0.062
		c-0.347,0.041-0.657,0.062-0.933,0.062c-0.053,0-0.094-0.026-0.123-0.079s-0.044-0.112-0.044-0.181c0-0.066,0.012-0.127,0.035-0.18
		s0.073-0.085,0.149-0.097c0.264-0.035,0.473-0.083,0.629-0.146c0.154-0.061,0.268-0.151,0.338-0.271s0.115-0.275,0.137-0.467
		c0.02-0.189,0.03-0.438,0.03-0.742v-7.067c0-0.516-0.013-0.927-0.04-1.235c-0.025-0.308-0.086-0.545-0.18-0.712
		s-0.237-0.281-0.431-0.343s-0.457-0.11-0.791-0.145c-0.059,0-0.104-0.029-0.136-0.088c-0.033-0.059-0.049-0.125-0.049-0.198
		s0.016-0.139,0.049-0.198c0.031-0.059,0.083-0.088,0.153-0.088c0.264-0.012,0.545-0.042,0.844-0.092s0.584-0.095,0.854-0.136
		s0.512-0.079,0.724-0.114s0.359-0.053,0.442-0.053c0.1,0,0.167,0.026,0.203,0.079c0.035,0.053,0.053,0.108,0.053,0.167V19.435z"/>
	<path fill="#FFFFFF" d="M148.536,24.621c0,0.422,0.045,0.716,0.136,0.884c0.091,0.166,0.236,0.25,0.436,0.25
		c0.135,0,0.244-0.015,0.33-0.044c0.084-0.029,0.203-0.094,0.355-0.193c0.059-0.053,0.138-0.018,0.237,0.105
		c0.094,0.123,0.105,0.22,0.035,0.29c-0.205,0.246-0.448,0.445-0.729,0.598s-0.565,0.229-0.853,0.229
		c-0.369,0-0.679-0.072-0.927-0.215c-0.25-0.144-0.45-0.383-0.603-0.717c-0.023-0.053-0.062-0.059-0.114-0.018
		c-0.328,0.27-0.694,0.498-1.099,0.686c-0.398,0.176-0.902,0.264-1.512,0.264c-0.691,0-1.226-0.182-1.604-0.545
		c-0.377-0.363-0.566-0.882-0.566-1.556c0-0.885,0.4-1.562,1.199-2.03c0.801-0.469,1.971-0.703,3.512-0.703
		c0.018,0,0.031-0.006,0.039-0.018c0.01-0.012,0.015-0.049,0.018-0.109c0.003-0.062,0.006-0.155,0.01-0.282
		c0.002-0.126,0.004-0.304,0.004-0.532c0-0.299-0.023-0.58-0.07-0.844s-0.135-0.495-0.264-0.694s-0.305-0.355-0.527-0.47
		c-0.223-0.114-0.51-0.171-0.861-0.171s-0.659,0.088-0.923,0.264s-0.396,0.401-0.396,0.677c0,0.123,0.041,0.252,0.123,0.387
		c0.088,0.123,0.132,0.252,0.132,0.387c0,0.164-0.085,0.325-0.255,0.483s-0.372,0.237-0.606,0.237c-0.328,0-0.562-0.088-0.698-0.264
		c-0.139-0.176-0.207-0.39-0.207-0.642c0-0.305,0.085-0.589,0.255-0.853s0.398-0.494,0.686-0.69s0.622-0.35,1.007-0.461
		c0.383-0.111,0.786-0.167,1.208-0.167c0.961,0,1.717,0.223,2.268,0.668c0.551,0.439,0.826,1.175,0.826,2.206V24.621z
		 M146.839,22.792c0-0.134-0.006-0.216-0.018-0.245s-0.041-0.044-0.088-0.044c-0.984,0.082-1.714,0.294-2.188,0.636
		s-0.712,0.775-0.712,1.302c0,0.181,0.021,0.351,0.066,0.508c0.043,0.158,0.112,0.294,0.206,0.408
		c0.094,0.113,0.216,0.202,0.364,0.267c0.15,0.064,0.33,0.097,0.541,0.097c0.281,0,0.571-0.054,0.87-0.162s0.571-0.265,0.817-0.469
		c0.094-0.094,0.141-0.19,0.141-0.289V22.792z"/>
	<path fill="#FFFFFF" d="M153.836,24.383c0,0.299,0.009,0.548,0.026,0.747s0.08,0.362,0.188,0.487
		c0.108,0.127,0.278,0.227,0.51,0.299c0.231,0.074,0.559,0.14,0.98,0.198c0.059,0.012,0.104,0.044,0.137,0.097
		c0.031,0.053,0.048,0.113,0.048,0.18c0,0.068-0.02,0.128-0.058,0.181s-0.08,0.079-0.127,0.079c-0.516,0-0.971-0.021-1.367-0.062
		c-0.395-0.041-0.774-0.062-1.138-0.062c-0.381,0-0.761,0.021-1.138,0.062c-0.379,0.041-0.761,0.062-1.147,0.062
		c-0.059,0-0.103-0.026-0.132-0.079s-0.044-0.112-0.044-0.181c0-0.066,0.015-0.127,0.044-0.18s0.079-0.085,0.149-0.097
		c0.328-0.047,0.585-0.106,0.769-0.181c0.186-0.072,0.322-0.169,0.414-0.289c0.09-0.12,0.145-0.273,0.162-0.457
		c0.018-0.186,0.026-0.418,0.026-0.699v-2.628c0-0.586-0.012-1.053-0.035-1.402s-0.081-0.615-0.171-0.801
		c-0.092-0.184-0.232-0.311-0.422-0.377c-0.191-0.068-0.456-0.113-0.796-0.137c-0.059,0-0.103-0.029-0.132-0.088
		s-0.044-0.119-0.044-0.18s0.018-0.122,0.053-0.18s0.082-0.088,0.141-0.088c0.287-0.023,0.575-0.054,0.866-0.092
		c0.289-0.038,0.558-0.075,0.804-0.11s0.452-0.067,0.62-0.097c0.166-0.029,0.273-0.044,0.32-0.044c0.217,0,0.325,0.108,0.325,0.325
		c0,0.082-0.009,0.252-0.026,0.51s-0.026,0.483-0.026,0.677c0,0.023,0.012,0.035,0.035,0.035s0.041-0.012,0.053-0.035
		c0.205-0.527,0.49-0.932,0.856-1.213s0.854-0.422,1.464-0.422c0.504,0,0.876,0.119,1.116,0.356s0.36,0.549,0.36,0.936
		c0,0.217-0.078,0.412-0.233,0.585s-0.376,0.259-0.663,0.259c-0.275,0-0.468-0.065-0.575-0.198
		c-0.109-0.131-0.163-0.273-0.163-0.426c0-0.363-0.173-0.545-0.519-0.545c-0.229,0-0.437,0.074-0.624,0.225
		c-0.188,0.148-0.347,0.326-0.479,0.531c-0.131,0.205-0.232,0.416-0.303,0.633s-0.105,0.384-0.105,0.501V24.383z"/>
	<path fill="#FFFFFF" d="M160.181,21.975c-0.059,0-0.091,0.021-0.097,0.062s-0.009,0.091-0.009,0.149
		c0,0.627,0.075,1.156,0.224,1.586c0.15,0.432,0.354,0.781,0.615,1.051s0.565,0.465,0.914,0.584c0.349,0.121,0.726,0.181,1.13,0.181
		s0.797-0.038,1.178-0.114s0.729-0.229,1.046-0.457c0.094-0.088,0.193-0.064,0.299,0.07c0.111,0.129,0.126,0.237,0.044,0.325
		c-0.393,0.492-0.826,0.838-1.301,1.037c-0.475,0.193-1.066,0.29-1.775,0.29c-0.721,0-1.348-0.108-1.881-0.325
		s-0.978-0.517-1.331-0.901c-0.355-0.383-0.619-0.837-0.791-1.361c-0.174-0.524-0.26-1.095-0.26-1.71c0-0.598,0.1-1.158,0.299-1.679
		s0.476-0.976,0.83-1.362s0.781-0.693,1.279-0.918s1.046-0.338,1.644-0.338c0.504,0,0.961,0.086,1.371,0.259
		s0.762,0.413,1.055,0.721c0.293,0.307,0.52,0.672,0.681,1.094s0.242,0.882,0.242,1.38c0,0.252-0.091,0.378-0.272,0.378H160.181z
		 M163.477,21.342c0.088,0,0.154-0.016,0.197-0.049c0.045-0.031,0.075-0.075,0.093-0.131s0.027-0.12,0.03-0.193
		s0.005-0.154,0.005-0.242c0-0.252-0.04-0.493-0.118-0.725c-0.08-0.231-0.191-0.438-0.334-0.62c-0.145-0.182-0.32-0.327-0.527-0.435
		c-0.209-0.108-0.441-0.163-0.699-0.163c-0.328,0-0.608,0.057-0.84,0.171c-0.231,0.115-0.426,0.267-0.584,0.457
		c-0.158,0.191-0.281,0.411-0.369,0.66s-0.149,0.511-0.185,0.786c-0.023,0.141-0.032,0.257-0.026,0.347
		c0.006,0.092,0.032,0.137,0.079,0.137H163.477z"/>
	<path fill="#FFFFFF" d="M178.129,14.108c0.539,0,1.037,0.066,1.494,0.198s0.908,0.306,1.354,0.523
		c0.129,0.059,0.251,0.114,0.364,0.167c0.115,0.053,0.213,0.079,0.295,0.079c0.193,0,0.319-0.114,0.378-0.343
		c0.012-0.047,0.051-0.082,0.118-0.105s0.135-0.032,0.203-0.026c0.066,0.006,0.124,0.021,0.171,0.044s0.064,0.062,0.053,0.114
		c-0.047,0.188-0.079,0.384-0.097,0.589s-0.026,0.416-0.026,0.633c0,0.334,0.023,0.669,0.07,1.006s0.094,0.684,0.141,1.042
		c0,0.047-0.026,0.086-0.079,0.119s-0.119,0.051-0.197,0.057c-0.08,0.006-0.156-0.003-0.229-0.026
		c-0.074-0.023-0.116-0.067-0.128-0.132c-0.299-1.078-0.784-1.872-1.454-2.382c-0.672-0.51-1.517-0.765-2.536-0.765
		c-0.791,0-1.446,0.168-1.964,0.505c-0.52,0.337-0.931,0.766-1.235,1.288s-0.518,1.103-0.638,1.745
		c-0.12,0.641-0.18,1.267-0.18,1.876c0,0.674,0.071,1.347,0.215,2.017c0.144,0.672,0.379,1.278,0.703,1.82
		c0.326,0.542,0.749,0.982,1.271,1.322s1.154,0.51,1.898,0.51c0.574,0,1.09-0.05,1.547-0.149s0.841-0.287,1.151-0.562
		c0.387-0.352,0.694-0.771,0.923-1.257s0.39-1.034,0.483-1.644c0.012-0.088,0.05-0.144,0.114-0.167s0.133-0.026,0.206-0.009
		s0.141,0.052,0.203,0.101c0.061,0.051,0.083,0.099,0.065,0.146c-0.035,0.24-0.059,0.478-0.07,0.712s-0.018,0.472-0.018,0.712
		c0,0.404,0.015,0.82,0.044,1.248s0.059,0.876,0.088,1.345c0,0.07-0.025,0.123-0.074,0.158c-0.051,0.035-0.107,0.056-0.172,0.062
		s-0.127-0.006-0.189-0.035c-0.061-0.029-0.098-0.073-0.109-0.132c-0.023-0.111-0.064-0.217-0.123-0.316s-0.137-0.183-0.232-0.25
		c-0.098-0.067-0.209-0.102-0.334-0.102c-0.127,0-0.269,0.041-0.427,0.123c-0.264,0.146-0.519,0.271-0.765,0.373
		c-0.246,0.104-0.495,0.184-0.747,0.242s-0.516,0.1-0.791,0.123s-0.574,0.035-0.896,0.035c-2.127,0-3.703-0.53-4.729-1.591
		s-1.538-2.581-1.538-4.562c0-1.055,0.162-1.988,0.488-2.799c0.324-0.812,0.771-1.49,1.34-2.035s1.245-0.955,2.03-1.23
		S177.203,14.108,178.129,14.108z"/>
	<path fill="#FFFFFF" d="M185.327,17.422c0-0.521-0.012-0.935-0.035-1.239s-0.083-0.541-0.181-0.708
		c-0.096-0.167-0.243-0.281-0.439-0.343s-0.47-0.11-0.821-0.145c-0.059,0-0.104-0.032-0.136-0.097
		c-0.033-0.064-0.049-0.135-0.049-0.211c0-0.064,0.015-0.125,0.044-0.18s0.076-0.083,0.141-0.083
		c0.434-0.041,0.814-0.085,1.143-0.132s0.61-0.091,0.849-0.132c0.236-0.041,0.43-0.073,0.58-0.097
		c0.148-0.023,0.259-0.035,0.329-0.035c0.094,0,0.163,0.026,0.206,0.079c0.045,0.053,0.066,0.108,0.066,0.167v10.117
		c0,0.305,0.006,0.559,0.018,0.76c0.012,0.203,0.057,0.367,0.137,0.492c0.078,0.127,0.203,0.227,0.373,0.299
		c0.17,0.074,0.413,0.134,0.729,0.181c0.064,0.012,0.111,0.047,0.141,0.105s0.044,0.12,0.044,0.185s-0.015,0.122-0.044,0.172
		c-0.029,0.049-0.076,0.074-0.141,0.074c-0.287,0-0.61-0.021-0.972-0.062c-0.359-0.041-0.719-0.062-1.076-0.062
		c-0.387,0-0.765,0.021-1.134,0.062s-0.747,0.062-1.134,0.062c-0.064,0-0.113-0.026-0.145-0.079
		c-0.033-0.053-0.049-0.111-0.049-0.176s0.018-0.124,0.053-0.181c0.035-0.055,0.088-0.089,0.158-0.101
		c0.34-0.035,0.601-0.088,0.782-0.158s0.313-0.17,0.396-0.299s0.13-0.287,0.145-0.475s0.022-0.419,0.022-0.694V17.422z"/>
	<path fill="#FFFFFF" d="M197.711,23.434c0,0.486,0.01,0.883,0.031,1.191c0.02,0.307,0.074,0.549,0.162,0.725s0.221,0.296,0.4,0.36
		c0.178,0.064,0.429,0.097,0.751,0.097c0.053,0,0.094,0.028,0.123,0.084s0.044,0.115,0.044,0.18s-0.014,0.123-0.039,0.176
		c-0.027,0.053-0.069,0.085-0.128,0.097c-0.088,0.018-0.205,0.04-0.352,0.065c-0.146,0.027-0.308,0.053-0.483,0.08
		c-0.176,0.025-0.357,0.054-0.545,0.083s-0.366,0.056-0.536,0.079s-0.324,0.044-0.462,0.062s-0.244,0.026-0.32,0.026
		c-0.217,0-0.325-0.334-0.325-1.002c0-0.023-0.012-0.038-0.035-0.044s-0.047,0.003-0.07,0.026c-0.445,0.381-0.892,0.646-1.341,0.795
		c-0.447,0.15-0.883,0.225-1.305,0.225c-0.557,0-1.014-0.069-1.371-0.207c-0.357-0.137-0.639-0.338-0.844-0.602
		s-0.349-0.589-0.431-0.976s-0.123-0.829-0.123-1.327v-2.03c0-0.528-0.012-0.941-0.035-1.24s-0.079-0.527-0.167-0.686
		s-0.215-0.267-0.383-0.325c-0.166-0.059-0.394-0.108-0.681-0.149c-0.059,0-0.104-0.032-0.136-0.097
		c-0.033-0.064-0.049-0.135-0.049-0.211c0-0.064,0.015-0.125,0.044-0.18s0.076-0.083,0.141-0.083
		c0.604-0.041,1.144-0.111,1.619-0.211c0.247-0.047,0.453-0.083,0.618-0.11s0.298-0.04,0.397-0.04c0.124,0,0.209,0.035,0.257,0.105
		c0.047,0.07,0.07,0.149,0.07,0.237v4.316c0,0.48,0.021,0.89,0.062,1.227s0.115,0.612,0.224,0.826
		c0.107,0.214,0.257,0.369,0.447,0.465c0.189,0.098,0.431,0.146,0.723,0.146c0.41,0,0.834-0.07,1.271-0.211
		c0.444-0.146,0.781-0.322,1.009-0.527c0.035-0.035,0.056-0.1,0.062-0.193s0.009-0.167,0.009-0.22v-2.839
		c0-0.528-0.006-0.941-0.018-1.24s-0.053-0.527-0.123-0.686s-0.182-0.267-0.334-0.325s-0.372-0.108-0.659-0.149
		c-0.059-0.012-0.104-0.051-0.137-0.119c-0.032-0.066-0.048-0.139-0.048-0.215c0-0.064,0.015-0.12,0.044-0.167
		s0.076-0.07,0.141-0.07c0.645-0.041,1.175-0.111,1.591-0.211c0.428-0.1,0.738-0.149,0.932-0.149c0.1,0,0.176,0.037,0.229,0.11
		s0.079,0.163,0.079,0.268V23.434z"/>
	<path fill="#FFFFFF" d="M200.963,17.44c0-0.516-0.006-0.93-0.018-1.244s-0.057-0.557-0.137-0.729
		c-0.078-0.173-0.201-0.29-0.369-0.352c-0.166-0.062-0.405-0.11-0.716-0.145c-0.123,0-0.185-0.092-0.185-0.277
		s0.056-0.277,0.167-0.277c0.176-0.012,0.399-0.04,0.673-0.083c0.271-0.044,0.537-0.089,0.795-0.136s0.49-0.088,0.699-0.123
		c0.207-0.035,0.35-0.053,0.426-0.053c0.24,0,0.36,0.076,0.36,0.229v5.238c0,0.023,0.009,0.035,0.026,0.035s0.032-0.012,0.044-0.035
		c0.229-0.346,0.555-0.656,0.979-0.932s0.951-0.413,1.578-0.413c0.516,0,0.971,0.11,1.367,0.33c0.395,0.22,0.728,0.513,0.997,0.879
		c0.27,0.366,0.473,0.789,0.61,1.27s0.207,0.979,0.207,1.495c0,0.791-0.123,1.479-0.369,2.061c-0.246,0.584-0.579,1.064-0.998,1.441
		c-0.419,0.379-0.904,0.66-1.459,0.844c-0.553,0.186-1.135,0.277-1.744,0.277c-0.422,0-0.873-0.026-1.354-0.079
		s-1.008-0.182-1.582-0.387V17.44z M202.659,24.761c0,0.07,0.041,0.179,0.123,0.325s0.198,0.285,0.347,0.418
		c0.15,0.131,0.33,0.249,0.541,0.352s0.442,0.153,0.694,0.153c0.434,0,0.794-0.1,1.081-0.299s0.516-0.47,0.686-0.813
		c0.17-0.342,0.287-0.734,0.352-1.178c0.064-0.441,0.097-0.909,0.097-1.401c0-0.422-0.023-0.816-0.07-1.183
		c-0.047-0.365-0.134-0.687-0.259-0.962c-0.127-0.275-0.304-0.493-0.532-0.655c-0.229-0.16-0.53-0.241-0.905-0.241
		c-0.311,0-0.598,0.06-0.861,0.181c-0.264,0.12-0.492,0.264-0.686,0.43c-0.193,0.168-0.343,0.352-0.448,0.555
		c-0.105,0.201-0.158,0.382-0.158,0.54V24.761z"/>
</g>
</svg>
